<?xml version="1.0" encoding="UTF-8"?>
<svg id="Layer_1" data-name="Layer 1" xmlns="http://www.w3.org/2000/svg" viewBox="0 0 543.75 899.17">
  <g>
    <g>
      <g>
        <path d="M236.71,405.7c76.8-2.18,176.94,1.1,250.9,21.26,8.78,2.39,32.95,9.43,38.63,15.71,9.19,10.17-3.18,20.36-12.5,23.82-30.93-17.25-69.18-22.94-104.16-27.15-96-11.55-218.16-11.74-313.21,6-22.68,4.23-45.87,9.09-65.83,20.97-34.14-18.04-6.55-29.85,15.1-36.6,55.88-17.43,132.32-22.34,191.08-24.01Z"/>
        <path d="M317.56,132.77l.88,47.89c3.19,5.35,9.69,5.01,10.2,13-11.73-2.23-23.73-4.71-35.67-5.64-16.66-1.3-35.33-.81-51.93,1.26-8.23,1.03-16.31,3.08-24.47,4.38-3.12-7.95,9.87-9.66,10.27-12.97l-.04-47.4c-23.62-12.35-13.72-21.25,6.74-26.24,22.81-5.57,53.22-5.53,76.07-.2,19.14,4.46,31.54,13.38,7.96,25.91ZM277.7,175.56v-39.06c0-4.4-11.32-5.42-11.32,1.13v37.92h11.32ZM240.34,141.03c-1.99,9.97,1.48,26.11,0,36.79l10.2-1.13c-1.61-9.55,2.51-30.18-.87-38.2-2.89-6.86-8.3-2.59-9.33,2.54ZM304.87,177.81c-3.65-8.59,2.13-35.68-3.34-41.36-2.09-2.17-3.71-2.39-5.76,0-4.88,5.67-.89,31.85-2.22,40.24l11.32,1.12Z"/>
        <path d="M278.84,54.4c21.24,9.43,34.79,29.42,41.87,50.96-31.57-8.08-65.71-8.07-97.35,0,6.47-21.63,20.81-41.67,41.82-51.04"/>
        <path d="M506.44,558.15l37.19,6.96.12,14.61-123.98-10.18c-12.07-.38-24.2-.55-36.26-1.1-102.65-4.63-206.5-3.36-309,4.49-24.72,1.9-49.39,5.48-74.17,6.79l.12-14.61,37.23-6.91c-.18-7.34.27-14.76.06-22.11-.54-18.72-3.4-43.97-1.25-62.29.71-6.05,15.13-9.58,20.45-11.25,29.82-9.37,67.76-13.52,99.06-16.41,77.1-7.12,161.75-7.36,238.86,0,37.34,3.56,77.58,9.26,112.1,23.75l-.53,88.27ZM293.55,542.35v-70.75c0-1.93-4.96-8.69-6.75-10.23-12.98-11.14-34.74-4.2-36.31,13.58-1.84,20.9,2.02,43.99-.62,65.09l1.23,2.31h42.45ZM376.19,544.61v-68.49c0-.5-2.93-6.75-3.58-7.74-6.42-9.93-21.14-14.22-29.99-4.88-1.28,1.36-6.06,10.2-6.06,11.49v67.36l39.62,2.26ZM208.64,543.48v-65.09c0-1.64-3.25-9.53-4.52-11.33-7.84-11.03-24.28-9.83-31.52,1.32-.64.99-3.58,7.24-3.58,7.74v69.62c13.05-2.27,26.4-2.42,39.62-2.26ZM128.27,548.01v-68.49c0-3.15-7.93-10.58-11.31-11.4-5.35-1.29-11.67,2.56-14.73,6.87-1.27,1.8-4.52,9.68-4.52,11.33v63.96l30.57-2.26ZM446.38,550.27v-67.36c0-1.61-4.07-8.69-5.62-10.23-12.01-11.95-27.14.63-25.7,15.25l.75,60.08,30.57,2.26ZM58.08,488.58v67.36l13.57-2.28c-1.11-19.73,1.5-41.06.06-60.6-.25-3.4-1.43-11.86-5.35-12.86-3.31-.84-7.82,5.8-8.28,8.38ZM486,554.8v-67.36c0-.33-2.81-5.1-3.36-5.71-3.56-3.92-8.82,2.38-9.98,5.95l.25,64.93,13.09,2.19Z"/>
        <path d="M500.71,422.35c-25.52-6.69-51.5-12.09-77.68-15.71-67.5-9.32-136.8-10.8-204.77-8.08-58.62,2.35-117.7,8.35-174.31,23.8-5.46-9.26,7.16-13.36,8.28-16.62,1.39-4.05.75-12.34,1.33-16.78,14.29-108.95,97.5-194.13,210.04-195.34,27.63-.3,49.71-.02,76.96,9.09,85.99,28.75,138.28,96.97,149.97,186.25.58,4.45-.06,12.72,1.33,16.78,1.08,3.16,13.45,7.48,8.86,16.61ZM241.48,380.46h58.29s2.66-1.87,2.66-1.87c.41-48.07,1.24-98.01-14.03-144.12-3.64-11-8.66-22.62-15.85-31.74-4.09-1-13.47,21.71-14.95,25.76-9.77,26.69-11.67,55.49-14.99,83.5l-1.14,68.48ZM256.19,203.86c-.78-.79-7.03,3.86-8.28,4.73-51.72,36.24-67.77,115.78-68.69,175.26l49.8-3.4c-.31-2.09-1.12-3.99-1.19-6.16-1.34-43.17,3.13-118.66,21.36-157.63.98-2.1,7.97-11.81,7-12.8ZM364.86,383.86c-.54-51.35-12.61-116.34-46.95-156.24-2.82-3.28-26.67-27-30.01-23.75,3.87,8.71,8.92,16.72,12.12,25.79,10.51,29.82,15.03,75.34,16.22,107.17.53,14.15.39,29.7-1.17,43.62l49.8,3.4ZM420.34,389.51c.95-73.22-33.37-136.09-93.6-176.39-3.92-2.62-8.08-6.07-12.81-6.99,47.2,45.71,63.46,113.72,63.89,177.8l42.52,5.58ZM229.02,207.27c-5.31.55-10.66,5.04-15.07,8.12-17.5,12.22-35.89,29.33-48.79,46.3-27.33,35.94-41.64,82.69-41.42,127.83l41.89-4.53c1.21-63.75,16.76-131.79,63.39-177.73ZM193.93,215.19l-23,13.78c-56.18,37.8-89.9,100.69-92.47,168.46l31.57-5.77c.55-61.8,24.37-121.9,69.71-164.06,4.52-4.2,10.17-7.63,14.18-12.41ZM465.62,397.44c-.83-69.87-37.54-131.23-94.26-170.06-6.63-4.54-13.9-8.8-21.2-12.18,55.12,41.9,83.88,107.52,83.83,176.54l31.63,5.71Z"/>
      </g>
      <g>
        <path d="M67.36,586.92l45.27,98.72,46.61-98.82,52.11-.8v10.87c-13.56-.32-15.73,5.55-15.43,17.69.86,34.54,7.76,70.96,9.32,105.7,1.79,7.45,5.46,11.12,13.36,11.58v9.93h-69.74v-9.95c12.62-.73,18.22-2.24,19-15.87.99-17.28-3.02-45.1-4.52-63.38-.68-8.29-2.44-16.53-1.81-24.91l-52.09,114.15-12.7.51-53.39-118.3c-.99,11.55-.7,23.29-1.37,34.87-1.09,19.06-4.92,42.02-4.44,60.6.24,9.27,9.02,12.64,17.13,12.31v10.87H0v-9.64c8.3.08,15.28-8.91,17.28-16.44,1.69-31.32,7.84-63.66,9.36-94.79.86-17.61-7.01-23.71-26.3-24.95,0-4.21,0-6.61,0-9.96h67.02Z"/>
        <path d="M285.59,716.92c.17,2.76.58,8.59,2.97,9.71,2.66,1.26,71.67,1.06,76.3.7,15.67-1.23,31.8-9.78,34.84-26.3h13.59l-4.53,40.76h-179.28v-10.87c8.59,1.82,17.12-2.6,17.24-12.19l-.09-114.1c-1.03-6.61-10.76-7.64-16.25-7.75v-9.97s140.8.46,140.8.46v38.49h-12.68c-1.3-11.96-8.59-24.49-21.25-24.49s-39.02.07-51.54.07l-.07,52.5h42.53c6.21,0,13.95-7.83,12.23-14.49h12.68l-.1,49.72-13.45.96c.85-5.16-6.12-18.07-11.36-18.07h-42.53"/>
        <path d="M507.95,601.43c11.22,2.01,17.58,14.76,19.49,25.34l16.3-.36v-39.49h-158.49l-2.72,40.76,15.36-.94c-.31-9.05,12.41-24.42,21.32-24.42h26.22v116.38c0,.35-1.2,6.39-1.37,6.79-1.89,4.37-13.34,6.15-17.66,5.44v10.87h76.99v-10.87c-4.83.03-13.52.61-16.74-3.64-.4-.53-2.28-4.69-2.28-4.96v-120.91h22.48"/>
      </g>
    </g>
    <path d="M272.06,0h0C273.91,0,275.42,1.51,275.42,3.36v31.05h-6.72V3.36C268.7,1.51,270.2,0,272.06,0Z"/>
    <path d="M272.13,32.97h0c3.91,0,7.09,3.18,7.09,7.09v22.79c0,2.5-2.03,4.52-4.52,4.52h-5.14c-2.5,0-4.52-2.03-4.52-4.52v-22.79c0-3.91,3.18-7.09,7.09-7.09Z"/>
  </g>
  <g>
    <path d="M2.08,819.3c0-1.11.11-2.34.35-3.68.23-1.34.59-2.68,1.08-4.03.49-1.34,1.12-2.63,1.91-3.85.79-1.23,1.74-2.33,2.85-3.3,1.62,0,3.31.21,5.07.62,1.76.42,3.31.95,4.65,1.6-.51.55-.97,1.21-1.39,1.98-.42.76-.78,1.56-1.08,2.4-.3.83-.53,1.67-.69,2.5-.16.83-.24,1.6-.24,2.29,0,.97.13,1.97.38,2.99.25,1.02.81,1.96,1.67,2.81.86.86,2.12,1.55,3.78,2.08s3.89.8,6.67.8c4.44,0,7.52-.39,9.24-1.18,1.71-.79,2.57-1.94,2.57-3.47,0-1.39-.6-2.82-1.81-4.31-1.39-.42-2.78-.89-4.17-1.42-1.39-.53-2.75-1.12-4.1-1.77-.37-2.55-.64-5-.8-7.36-.16-2.36-.24-4.54-.24-6.53,2.68,1.25,5.37,2.26,8.06,3.02,2.68.76,5.23,1.35,7.64,1.77,2.41.42,4.59.71,6.56.87,1.97.16,3.58.24,4.83.24l3.47,3.47v10.42c-1.62,0-3.31-.05-5.07-.14-1.76-.09-3.61-.25-5.56-.49.23.69.38,1.35.45,1.98s.1,1.26.1,1.91c0,2.87-.58,5.36-1.74,7.47-1.16,2.11-2.74,3.85-4.76,5.24-2.01,1.39-4.4,2.43-7.15,3.12-2.75.69-5.73,1.04-8.92,1.04-4.17,0-7.73-.51-10.69-1.53-2.96-1.02-5.41-2.4-7.33-4.13-1.92-1.74-3.33-3.76-4.24-6.08-.9-2.32-1.35-4.77-1.35-7.36ZM20.49,842.56c.79.6,1.63,1.31,2.53,2.12.9.81,1.79,1.63,2.67,2.46.88-.83,1.77-1.66,2.67-2.46.9-.81,1.75-1.52,2.53-2.12,1.3.97,2.68,2.16,4.17,3.58,1.48,1.41,2.75,2.77,3.82,4.06-1.07,1.29-2.34,2.65-3.82,4.06-1.48,1.41-2.87,2.6-4.17,3.58-.79-.6-1.63-1.31-2.53-2.12-.9-.81-1.79-1.63-2.67-2.46-.88.83-1.77,1.65-2.67,2.46-.9.81-1.75,1.52-2.53,2.12-.6-.46-1.27-1.01-2.01-1.63-.74-.62-1.47-1.27-2.19-1.94-.72-.67-1.4-1.35-2.05-2.05-.65-.69-1.23-1.37-1.74-2.01.51-.65,1.09-1.32,1.74-2.01.65-.69,1.33-1.38,2.05-2.05.72-.67,1.45-1.31,2.19-1.91.74-.6,1.41-1.16,2.01-1.67Z"/>
    <path d="M54.17,804.37h.35c1.53,0,2.72-.52,3.58-1.56.86-1.04,1.28-3.07,1.28-6.08v-28.47h12.85v31.94c0,3.29-.37,6.08-1.11,8.37-.74,2.29-1.74,4.16-2.99,5.59-1.25,1.44-2.72,2.48-4.41,3.12-1.69.65-3.48.97-5.38.97h-.69l-3.47-3.47v-10.42Z"/>
    <path d="M92.01,768.26v29.17c0,1.39.1,2.53.31,3.44.21.9.52,1.62.94,2.15.42.53.93.89,1.53,1.08.6.19,1.3.28,2.08.28h.35l3.47,3.47v10.42h-3.82c-3.06,0-5.69-.3-7.92-.9s-4.06-1.69-5.52-3.26c-1.46-1.57-2.53-3.7-3.23-6.39-.69-2.68-1.04-6.11-1.04-10.28v-29.17h12.85Z"/>
    <path d="M113.54,804.37c-1.07-1.2-2.08-2.52-3.06-3.96-.97-1.43-1.97-2.99-2.99-4.65-.32.09-.62.17-.9.24s-.58.15-.9.24c-.28-.88-.56-1.91-.83-3.09-.28-1.18-.53-2.38-.76-3.61-.23-1.23-.42-2.44-.56-3.65-.14-1.2-.25-2.27-.35-3.2.93-.37,2.13-.71,3.61-1.01,1.48-.3,3.06-.58,4.72-.83,1.67-.25,3.38-.45,5.14-.59,1.76-.14,3.38-.21,4.86-.21,3.52,0,6.56.35,9.13,1.04,2.57.69,4.7,1.69,6.39,2.99,1.69,1.3,2.94,2.85,3.75,4.65.81,1.81,1.22,3.82,1.22,6.04,0,3.8-1.39,6.99-4.17,9.58h7.29l3.47,3.47v10.42h-4.17c-3.1,0-6.37-.28-9.79-.83-3.43-.56-6.94-1.88-10.56-3.96-2.96,1.62-6.07,2.83-9.31,3.61-3.24.79-6.55,1.18-9.93,1.18h-4.86l-3.47-3.47v-10.42h17.01ZM126.53,804.09c1.16-.23,2.11-.57,2.85-1.01.74-.44,1.33-.91,1.77-1.42.44-.51.74-1.02.9-1.53.16-.51.24-.97.24-1.39,0-.56-.13-1.11-.38-1.67-.25-.56-.8-1.06-1.63-1.53-.83-.46-2.01-.84-3.54-1.15s-3.57-.45-6.11-.45c-.32,0-.81.02-1.46.07-.65.05-1.41.12-2.29.21.97,1.81,1.9,3.3,2.78,4.48.88,1.18,1.71,2.14,2.5,2.88.79.74,1.54,1.31,2.26,1.7.72.39,1.42.66,2.12.8Z"/>
    <path d="M144.44,804.37h.35c1.53,0,2.72-.52,3.58-1.56.86-1.04,1.28-3.07,1.28-6.08v-28.47h12.85v31.94c0,3.29-.37,6.08-1.11,8.37-.74,2.29-1.74,4.16-2.99,5.59-1.25,1.44-2.72,2.48-4.41,3.12-1.69.65-3.48.97-5.38.97h-.69l-3.47-3.47v-10.42Z"/>
    <path d="M169.44,768.26h12.85v50h-12.85v-50Z"/>
    <path d="M205.9,811.1v-26.18h12.85v12.5c0,2.69.4,4.51,1.22,5.49.81.97,2.02,1.46,3.65,1.46h.35l3.47,3.47v10.42h-.35c-4.26,0-7.04-2.92-8.33-8.75v4.72c0,3.43-.43,6.36-1.28,8.82-.86,2.45-2.07,4.5-3.65,6.15-1.57,1.64-3.47,2.87-5.69,3.68-2.22.81-4.7,1.26-7.43,1.35-.51-2.36-.81-4.63-.9-6.8-.09-2.18-.14-4.54-.14-7.08,1.16,0,2.14-.1,2.95-.31.81-.21,1.46-.64,1.94-1.28.49-.65.83-1.57,1.04-2.78.21-1.2.31-2.82.31-4.86Z"/>
    <path d="M227.78,804.37c1.62,0,2.84-.49,3.65-1.46.81-.97,1.22-2.8,1.22-5.49v-6.94h12.85v6.25c0,1.44.09,2.55.28,3.33,3.01-3.15,6.09-5.98,9.24-8.51,3.15-2.52,6.34-4.66,9.58-6.42,3.24-1.76,6.49-3.1,9.76-4.03,3.26-.93,6.49-1.39,9.69-1.39,2.92,0,5.54.41,7.88,1.21,2.34.81,4.34,1.96,6.01,3.44,1.67,1.48,2.95,3.3,3.85,5.45.9,2.15,1.35,4.57,1.35,7.26s-.49,4.98-1.46,7.29h3.89l3.47,3.47v10.42h-60.42c-3.24,0-6.13-.68-8.68-2.05-2.55-1.37-4.47-3.62-5.76-6.77-.46,2.92-1.25,5.12-2.36,6.6-1.11,1.48-2.69,2.22-4.72,2.22h-.35l-3.47-3.47v-10.42h4.51ZM247.98,803.88c.6.32,1.39.49,2.36.49h21.18c3.8,0,7.04-.09,9.72-.28,2.68-.18,4.87-.5,6.56-.94,1.69-.44,2.93-1.04,3.72-1.8.79-.76,1.18-1.72,1.18-2.88,0-1.62-.73-2.84-2.19-3.65-1.46-.81-3.74-1.21-6.84-1.21-1.94,0-4.23.19-6.84.56-2.62.37-5.45.96-8.51,1.77-3.06.81-6.3,1.86-9.72,3.16-3.43,1.3-6.97,2.89-10.62,4.79Z"/>
    <path d="M304.86,804.37h4.86c1.71,0,3.09-.53,4.13-1.6,1.04-1.06,1.97-2.4,2.78-3.99.81-1.6,1.58-3.32,2.33-5.17.74-1.85,1.67-3.58,2.78-5.17,1.11-1.6,2.49-2.93,4.13-3.99,1.64-1.06,3.76-1.6,6.35-1.6s5.01.61,6.98,1.84c1.97,1.23,3.6,2.86,4.9,4.9,1.3,2.04,2.26,4.38,2.88,7.01.62,2.64.94,5.37.94,8.19,0,2.08-.25,3.99-.76,5.73-.51,1.74-1.23,3.23-2.15,4.48-.93,1.25-2,2.22-3.23,2.92-1.23.7-2.58,1.04-4.06,1.04-2.64,0-5.03-.86-7.19-2.57-2.15-1.71-4.2-3.91-6.15-6.6-.6,1.11-1.33,2.19-2.19,3.23-.86,1.04-1.86,1.94-3.02,2.71-1.16.76-2.51,1.38-4.06,1.84-1.55.46-3.35.69-5.38.69h-1.39l-3.47-3.47v-10.42ZM327.36,802.7c.79,1.02,1.45,1.85,1.98,2.5.53.65,1.02,1.17,1.46,1.56.44.39.88.67,1.32.83.44.16.96.24,1.56.24.79,0,1.41-.16,1.88-.49.46-.32.81-.73,1.04-1.22s.38-1.01.45-1.56.1-1.04.1-1.46c0-.83-.06-1.63-.17-2.4-.12-.76-.33-1.45-.62-2.05-.3-.6-.74-1.08-1.32-1.42-.58-.35-1.35-.52-2.33-.52-1.34,0-2.4.57-3.16,1.7-.76,1.13-1.49,2.56-2.19,4.27Z"/>
    <path d="M382.57,805.06c1.9,0,3.32-.12,4.27-.35.95-.23,1.56-.6,1.84-1.11l-7.08-20.07,12.85-4.17,7.01,20.76c.37,1.11.95,2.1,1.74,2.95.79.86,2.15,1.29,4.1,1.29h.35l3.47,3.47v10.42h-.35c-2.41,0-4.62-.09-6.63-.28-2.01-.18-3.85-.6-5.52-1.25-1.67-.65-3.16-1.61-4.48-2.88-1.32-1.27-2.49-2.97-3.51-5.1-.23,1.48-.6,2.85-1.11,4.1-.51,1.25-1.25,2.33-2.22,3.23-.97.9-2.19,1.61-3.65,2.12s-3.23.76-5.31.76c-1.67,0-3.43-.21-5.28-.62-1.85-.42-3.75-1.13-5.69-2.15-.51-2.08-.87-4.31-1.08-6.67-.21-2.36-.31-4.77-.31-7.22,1.11.37,2.37.73,3.79,1.08,1.41.35,2.86.65,4.34.9,1.48.25,2.96.45,4.44.59,1.48.14,2.82.21,4.03.21Z"/>
    <path d="M406.94,814.78v-10.42h6.39c.42-2.36,1.05-4.61,1.91-6.74.86-2.13,1.91-4.17,3.16-6.11,1.25-1.94,2.64-3.81,4.17-5.59,1.53-1.78,3.15-3.51,4.86-5.17,1.43-.42,2.87-.73,4.3-.94,1.43-.21,2.89-.36,4.38-.45,3.61,2.04,6.42,4.31,8.44,6.81s3.02,5.56,3.02,9.17c0,1.62-.24,3.16-.73,4.62-.49,1.46-1.19,2.86-2.12,4.2,1.48.14,3.24.21,5.28.21h1.39l3.47,3.47v10.42h-4.17c-.79,0-1.53-.04-2.22-.1s-1.37-.15-2.01-.24c.28,1.06.42,2.13.42,3.2,0,1.67-.31,3.29-.94,4.86-.62,1.57-1.56,2.97-2.81,4.2s-2.8,2.21-4.65,2.95c-1.85.74-3.98,1.11-6.39,1.11-5.23,0-9.38-1.38-12.43-4.13-3.06-2.75-5.07-6.7-6.04-11.84h-3.2l-3.47-3.47ZM436.45,798.12c0-1.06-.53-2.12-1.6-3.16-1.07-1.04-2.27-2.09-3.61-3.16-1.9,2.36-3.42,4.58-4.55,6.67-1.13,2.08-1.98,4.03-2.54,5.83,4.54-.18,7.72-.8,9.55-1.84,1.83-1.04,2.74-2.49,2.74-4.34ZM431.59,820.34c1.62,0,2.92-.35,3.89-1.04.97-.69,1.46-1.74,1.46-3.12,0-.65-.07-1.29-.21-1.91-.14-.62-.46-1.28-.97-1.98-3.52,2.08-7.2,3.63-11.04,4.65.79,1.34,1.77,2.25,2.95,2.71,1.18.46,2.49.69,3.92.69Z"/>
    <path d="M467.7,804.37c-1.07-1.2-2.08-2.52-3.06-3.96-.97-1.43-1.97-2.99-2.99-4.65-.32.09-.62.17-.9.24-.28.07-.58.15-.9.24-.28-.88-.56-1.91-.83-3.09-.28-1.18-.53-2.38-.76-3.61-.23-1.23-.42-2.44-.56-3.65s-.25-2.27-.35-3.2c.92-.37,2.13-.71,3.61-1.01,1.48-.3,3.06-.58,4.72-.83,1.67-.25,3.38-.45,5.14-.59,1.76-.14,3.38-.21,4.86-.21,3.52,0,6.56.35,9.13,1.04s4.7,1.69,6.39,2.99c1.69,1.3,2.94,2.85,3.75,4.65.81,1.81,1.21,3.82,1.21,6.04,0,3.8-1.39,6.99-4.17,9.58h7.29l3.47,3.47v10.42h-4.17c-3.1,0-6.37-.28-9.79-.83-3.43-.56-6.94-1.88-10.56-3.96-2.96,1.62-6.07,2.83-9.31,3.61-3.24.79-6.55,1.18-9.93,1.18h-4.86l-3.47-3.47v-10.42h17.01ZM480.69,804.09c1.16-.23,2.11-.57,2.85-1.01.74-.44,1.33-.91,1.77-1.42.44-.51.74-1.02.9-1.53.16-.51.24-.97.24-1.39,0-.56-.13-1.11-.38-1.67-.25-.56-.8-1.06-1.63-1.53-.83-.46-2.01-.84-3.54-1.15s-3.57-.45-6.11-.45c-.32,0-.81.02-1.46.07-.65.05-1.41.12-2.29.21.97,1.81,1.9,3.3,2.78,4.48.88,1.18,1.71,2.14,2.5,2.88.79.74,1.54,1.31,2.26,1.7.72.39,1.42.66,2.12.8Z"/>
    <path d="M498.61,804.37h4.86c1.71,0,3.09-.53,4.13-1.6,1.04-1.06,1.97-2.4,2.78-3.99.81-1.6,1.58-3.32,2.33-5.17.74-1.85,1.67-3.58,2.78-5.17,1.11-1.6,2.49-2.93,4.13-3.99,1.64-1.06,3.76-1.6,6.35-1.6s5.01.61,6.98,1.84c1.97,1.23,3.6,2.86,4.9,4.9,1.3,2.04,2.26,4.38,2.88,7.01.62,2.64.94,5.37.94,8.19,0,2.08-.25,3.99-.76,5.73-.51,1.74-1.23,3.23-2.15,4.48-.93,1.25-2,2.22-3.23,2.92-1.23.7-2.58,1.04-4.06,1.04-2.64,0-5.03-.86-7.19-2.57-2.15-1.71-4.2-3.91-6.15-6.6-.6,1.11-1.33,2.19-2.19,3.23-.86,1.04-1.86,1.94-3.02,2.71-1.16.76-2.51,1.38-4.06,1.84-1.55.46-3.35.69-5.38.69h-1.39l-3.47-3.47v-10.42ZM521.11,802.7c.79,1.02,1.45,1.85,1.98,2.5.53.65,1.02,1.17,1.46,1.56.44.39.88.67,1.32.83.44.16.96.24,1.56.24.79,0,1.41-.16,1.88-.49.46-.32.81-.73,1.04-1.22s.38-1.01.45-1.56.1-1.04.1-1.46c0-.83-.06-1.63-.17-2.4-.12-.76-.33-1.45-.62-2.05-.3-.6-.74-1.08-1.32-1.42-.58-.35-1.35-.52-2.33-.52-1.34,0-2.4.57-3.16,1.7-.76,1.13-1.49,2.56-2.19,4.27Z"/>
    <path d="M66.12,866.43c.66-.18,1.36-.31,2.11-.39.75-.08,1.45-.12,2.11-.12-.25.59-.51,1.25-.78,1.99-.27.74-.41,1.51-.41,2.33,0,.48.05.91.15,1.31.1.4.31.74.61,1.02.31.28.76.5,1.36.66.6.16,1.39.24,2.36.24h7.14c.48,0,.9-.06,1.26-.17.36-.11.67-.32.92-.61.25-.29.44-.7.58-1.22.14-.52.2-1.18.2-1.97s-.06-1.77-.19-2.92c-.12-1.16-.35-2.48-.66-3.98h5.03c.27,1.43.48,2.81.63,4.15.15,1.34.22,2.52.22,3.54,0,2.99-.6,5.18-1.8,6.56-1.2,1.38-2.83,2.07-4.9,2.07h-7.92c-2.04,0-3.7-.18-4.98-.54-1.28-.36-2.28-.86-3.01-1.48-.73-.62-1.22-1.35-1.5-2.18-.27-.83-.41-1.69-.41-2.6,0-1.13.18-2.19.54-3.16.36-.97.8-1.81,1.33-2.52ZM70.58,859.56c.45-.57.99-1.14,1.6-1.72.61-.58,1.19-1.07,1.73-1.48.38.29.8.64,1.24,1.04s.86.81,1.24,1.24c.41-.43.83-.84,1.27-1.24s.86-.74,1.24-1.04c.54.41,1.12.91,1.73,1.5.61.59,1.14,1.16,1.6,1.7-.45.54-.99,1.12-1.61,1.72-.62.6-1.2,1.09-1.72,1.48-.39-.32-.8-.67-1.26-1.05-.45-.38-.87-.79-1.26-1.22-.41.43-.83.84-1.26,1.24s-.84.74-1.22,1.04c-.52-.41-1.09-.9-1.72-1.48-.62-.58-1.16-1.15-1.61-1.72Z"/>
    <path d="M97.67,854.43v14.99c0,.79.07,1.45.2,1.97.14.52.33.93.58,1.24.25.31.55.52.9.65.35.12.75.19,1.21.19h.17l1.29,1.43v4.01h-1.46c-1.34,0-2.5-.15-3.48-.44-.99-.29-1.81-.8-2.46-1.53-.66-.73-1.15-1.69-1.46-2.91s-.48-2.75-.48-4.61v-14.99h5Z"/>
    <path d="M100.43,873.47h.17c.97,0,1.71-.31,2.19-.93.49-.62.73-1.74.73-3.35v-3.88h5.03v4.11c0,1.52.25,2.57.76,3.16.51.59,1.22.88,2.12.88h.17l1.29,1.43v4.01h-.17c-1.2,0-2.19-.36-2.98-1.07-.78-.71-1.34-1.92-1.68-3.62-.48,1.68-1.25,2.88-2.33,3.6-1.08.73-2.32,1.09-3.72,1.09h-.31l-1.29-1.43v-4.01ZM106.99,881.46c.54.43,1.12.94,1.72,1.53.6.59,1.13,1.16,1.58,1.7-.45.54-.99,1.11-1.6,1.7-.61.59-1.18,1.08-1.7,1.46-.52-.39-1.09-.87-1.72-1.45-.62-.58-1.16-1.15-1.62-1.72.45-.57.99-1.14,1.6-1.72.61-.58,1.19-1.08,1.73-1.51Z"/>
    <path d="M111.31,873.47h.17c.97,0,1.71-.31,2.19-.93.49-.62.73-1.74.73-3.35v-3.88h5.03v4.45c0,1.52.25,2.57.76,3.16.51.59,1.22.88,2.12.88h.03c.97,0,1.71-.31,2.19-.94.49-.62.73-1.74.73-3.35v-4.11h5.03v4.62c.02,1.43.28,2.41.78,2.96s1.19.82,2.07.82h.07c.97,0,1.71-.31,2.19-.94.49-.62.73-1.74.73-3.35v-6.83h5v8.09c0,1.52-.17,2.82-.51,3.89-.34,1.08-.8,1.96-1.38,2.64-.58.68-1.26,1.17-2.06,1.48-.79.31-1.65.46-2.58.46h-.27c-1.16-.02-2.11-.4-2.87-1.12-.76-.72-1.31-1.92-1.65-3.57-.48,1.68-1.25,2.88-2.33,3.6-1.08.73-2.32,1.09-3.72,1.09h-.31c-1.18-.05-2.15-.44-2.92-1.19s-1.31-1.98-1.63-3.71c-.48,1.61-1.25,2.77-2.33,3.48s-2.31,1.07-3.69,1.07h-.31l-1.29-1.43v-4.01Z"/>
    <path d="M150.31,854.43v14.99c0,.79.07,1.45.2,1.97.14.52.33.93.58,1.24.25.31.55.52.9.65.35.12.75.19,1.21.19h.17l1.29,1.43v4.01h-1.46c-1.34,0-2.5-.15-3.48-.44-.99-.29-1.81-.8-2.46-1.53-.66-.73-1.15-1.69-1.46-2.91s-.48-2.75-.48-4.61v-14.99h5Z"/>
    <path d="M156.32,873.47c1.7,0,3.35-.12,4.95-.37,1.6-.25,3.12-.56,4.56-.93s2.79-.8,4.06-1.28c1.27-.48,2.45-.93,3.54-1.36-1.09-.36-2.19-.79-3.3-1.28-1.11-.49-2.22-.95-3.31-1.38-1.1-.43-2.19-.8-3.26-1.1-1.08-.31-2.14-.46-3.18-.46-.54,0-1.12.04-1.73.14s-1.26.22-1.94.37c-.02-.82,0-1.64.07-2.48.07-.84.19-1.65.37-2.45.95-.39,1.81-.65,2.58-.8.77-.15,1.51-.22,2.21-.22.97,0,1.95.13,2.92.39.97.26,1.94.59,2.91.99s1.92.84,2.87,1.33c.95.49,1.88.96,2.79,1.41.91.45,1.79.86,2.65,1.21s1.7.61,2.52.76c-.05.93-.1,1.77-.17,2.53-.07.76-.19,1.48-.37,2.16-.48.16-1.01.41-1.6.75.14.73.43,1.25.88,1.58.45.33,1.14.49,2.07.49h.68l1.29,1.43v4.01h-.68c-.86,0-1.64-.11-2.35-.32-.7-.21-1.31-.57-1.84-1.07-.52-.5-.95-1.16-1.28-1.97-.33-.82-.56-1.84-.7-3.06-1.04.63-2.2,1.33-3.47,2.07s-2.65,1.44-4.13,2.09c-1.48.65-3.05,1.18-4.71,1.61-1.65.43-3.38.65-5.17.65h-2.72l-1.29-1.43v-4.01h3.26Z"/>
    <path d="M179.78,873.47h.17c.97,0,1.71-.31,2.19-.93.49-.62.73-1.74.73-3.35v-14.76h5.03v16.01c0,1.52-.17,2.82-.51,3.89-.34,1.08-.8,1.96-1.38,2.63-.58.68-1.26,1.17-2.06,1.48s-1.65.46-2.58.46h-.31l-1.29-1.43v-4.01Z"/>
    <path d="M192.06,854.43h5v24.48h-5v-24.48Z"/>
    <path d="M200.42,871.7c0-.97.2-2,.61-3.08.41-1.08,1-2.07,1.77-2.97s1.71-1.66,2.81-2.26c1.1-.6,2.34-.9,3.72-.9,1.54,0,2.82.42,3.84,1.27,1.02.85,1.82,1.93,2.41,3.25.59,1.32,1,2.76,1.24,4.33.24,1.58.36,3.09.36,4.54,0,1.32-.17,2.65-.49,4-.33,1.35-.89,2.57-1.68,3.66s-1.87,1.98-3.23,2.67-3.07,1.04-5.13,1.04c-.75,0-1.59-.05-2.52-.15-.93-.1-1.76-.25-2.48-.46-.09-.41-.17-.86-.22-1.34-.06-.49-.1-.97-.12-1.45-.02-.48-.04-.92-.05-1.34-.01-.42-.02-.76-.02-1.04.84.14,1.62.23,2.33.27.71.04,1.39.07,2.02.07,1.61,0,2.91-.15,3.89-.46.99-.31,1.74-.72,2.26-1.24.52-.52.87-1.12,1.04-1.8.17-.68.25-1.39.25-2.14v-.65c0-.2-.01-.41-.03-.61-.79.73-1.74,1.28-2.84,1.67-1.1.39-2.22.58-3.35.58-.84,0-1.65-.11-2.43-.32-.78-.22-1.46-.55-2.04-1s-1.04-1.02-1.39-1.7c-.35-.68-.53-1.48-.53-2.41ZM209.36,873.64c.5,0,1.04-.03,1.62-.1.58-.07,1.2-.18,1.85-.34-.23-1.54-.71-2.8-1.46-3.79-.75-.99-1.86-1.48-3.33-1.48-.59,0-1.1.09-1.53.27-.43.18-.79.42-1.09.71-.29.29-.51.62-.65.99-.14.36-.2.71-.2,1.05,0,.36.08.7.24,1.02.16.32.42.6.8.85.37.25.87.45,1.48.59.61.15,1.37.22,2.28.22Z"/>
    <path d="M226.57,872.72c0-.75.12-1.47.36-2.18.24-.7.61-1.41,1.12-2.12s1.16-1.46,1.94-2.23,1.71-1.59,2.77-2.45c-.36-.25-.73-.5-1.1-.76s-.77-.53-1.17-.8c.59-.45,1.29-.85,2.11-1.19s1.65-.6,2.52-.78c1.2.63,2.32,1.38,3.37,2.24,1.04.86,1.95,1.8,2.72,2.82.77,1.02,1.38,2.11,1.82,3.26s.66,2.35.66,3.57c0,1.04-.2,2.01-.6,2.89s-.97,1.64-1.72,2.26c-.75.62-1.65,1.11-2.7,1.46-1.05.35-2.25.53-3.59.53s-2.5-.15-3.55-.46c-1.05-.31-1.94-.74-2.67-1.31-.73-.57-1.29-1.25-1.68-2.06-.4-.8-.6-1.71-.6-2.7ZM229.29,854.46c.45-.57.99-1.14,1.6-1.72.61-.58,1.19-1.07,1.73-1.48.38.29.8.64,1.24,1.04.44.4.86.81,1.24,1.24.41-.43.83-.84,1.27-1.24.44-.4.86-.74,1.24-1.04.54.41,1.12.91,1.73,1.5.61.59,1.14,1.16,1.6,1.7-.45.54-.99,1.12-1.61,1.72-.62.6-1.2,1.09-1.72,1.48-.39-.32-.8-.67-1.26-1.05-.45-.39-.87-.79-1.26-1.22-.41.43-.83.84-1.26,1.24s-.84.74-1.22,1.04c-.52-.41-1.09-.9-1.72-1.48-.62-.58-1.16-1.15-1.61-1.72ZM231.46,871.19c0,.88.29,1.58.88,2.09s1.5.76,2.72.76,2.19-.26,2.77-.78.87-1.16.87-1.9c0-.82-.28-1.69-.83-2.62-.56-.93-1.42-1.93-2.6-2.99-1.34,1.09-2.31,2.04-2.91,2.86-.6.82-.9,1.68-.9,2.58Z"/>
    <path d="M244.72,881.29c.61,0,1.14-.06,1.6-.17.45-.11.83-.35,1.12-.71.29-.36.51-.87.65-1.51.14-.65.2-1.5.2-2.57v-13.74h5.03v14.82c0,1.61-.19,2.99-.56,4.15-.37,1.16-.91,2.11-1.62,2.86-.7.75-1.56,1.31-2.57,1.68-1.01.37-2.15.58-3.42.63-.2-.93-.33-1.82-.37-2.67-.05-.85-.07-1.77-.07-2.77Z"/>
    <path d="M262.64,854.43v14.99c0,.79.07,1.45.2,1.97.14.52.33.93.58,1.24.25.31.55.52.9.65.35.12.75.19,1.21.19h.17l1.29,1.43v4.01h-1.46c-1.34,0-2.5-.15-3.48-.44-.99-.29-1.81-.8-2.46-1.53-.66-.73-1.15-1.69-1.46-2.91s-.48-2.75-.48-4.61v-14.99h5Z"/>
    <path d="M268.66,873.47c1.7,0,3.35-.12,4.95-.37,1.6-.25,3.12-.56,4.56-.93s2.79-.8,4.06-1.28c1.27-.48,2.45-.93,3.54-1.36-1.09-.36-2.19-.79-3.3-1.28-1.11-.49-2.22-.95-3.31-1.38-1.1-.43-2.19-.8-3.26-1.1-1.08-.31-2.14-.46-3.18-.46-.54,0-1.12.04-1.73.14s-1.26.22-1.94.37c-.02-.82,0-1.64.07-2.48.07-.84.19-1.65.37-2.45.95-.39,1.81-.65,2.58-.8.77-.15,1.51-.22,2.21-.22.97,0,1.95.13,2.92.39.97.26,1.94.59,2.91.99s1.92.84,2.87,1.33c.95.49,1.88.96,2.79,1.41.91.45,1.79.86,2.65,1.21s1.7.61,2.52.76c-.05.93-.1,1.77-.17,2.53-.07.76-.19,1.48-.37,2.16-.48.16-1.01.41-1.6.75.14.73.43,1.25.88,1.58.45.33,1.14.49,2.07.49h.68l1.29,1.43v4.01h-.68c-.86,0-1.64-.11-2.35-.32-.7-.21-1.31-.57-1.84-1.07-.52-.5-.95-1.16-1.28-1.97-.33-.82-.56-1.84-.7-3.06-1.04.63-2.2,1.33-3.47,2.07s-2.65,1.44-4.13,2.09c-1.48.65-3.05,1.18-4.71,1.61-1.65.43-3.38.65-5.17.65h-2.72l-1.29-1.43v-4.01h3.26ZM276.11,881.46c.54.43,1.12.94,1.72,1.53.6.59,1.13,1.16,1.58,1.7-.45.54-.99,1.11-1.6,1.7-.61.59-1.18,1.08-1.7,1.46-.52-.39-1.09-.87-1.72-1.45-.62-.58-1.16-1.15-1.61-1.72.45-.57.99-1.14,1.6-1.72.61-.58,1.19-1.08,1.73-1.51Z"/>
    <path d="M291.75,859.56c.45-.57.99-1.14,1.6-1.72.61-.58,1.19-1.07,1.73-1.48.38.29.8.64,1.24,1.04.44.4.85.81,1.24,1.24.41-.43.83-.84,1.28-1.24.44-.4.86-.74,1.24-1.04.54.41,1.12.91,1.73,1.5.61.59,1.14,1.16,1.6,1.7-.45.54-.99,1.12-1.62,1.72-.62.6-1.2,1.09-1.72,1.48-.39-.32-.8-.67-1.26-1.05-.45-.38-.87-.79-1.26-1.22-.41.43-.83.84-1.26,1.24s-.84.74-1.22,1.04c-.52-.41-1.09-.9-1.72-1.48-.62-.58-1.16-1.15-1.62-1.72ZM292.12,873.47h.17c.97,0,1.71-.31,2.19-.93.49-.62.73-1.74.73-3.35v-3.88h5.03v4.11c0,1.52.25,2.57.76,3.16.51.59,1.22.88,2.12.88h.17l1.29,1.43v4.01h-.17c-1.2,0-2.19-.36-2.97-1.07-.78-.71-1.34-1.92-1.68-3.62-.48,1.68-1.25,2.88-2.33,3.6-1.08.73-2.32,1.09-3.72,1.09h-.31l-1.29-1.43v-4.01Z"/>
    <path d="M303,873.47h.17c.97,0,1.71-.31,2.19-.93.49-.62.73-1.74.73-3.35v-14.76h5.03v16.01c0,1.52-.17,2.82-.51,3.89-.34,1.08-.8,1.96-1.38,2.63-.58.68-1.26,1.17-2.06,1.48-.79.31-1.65.46-2.58.46h-.31l-1.29-1.43v-4.01Z"/>
    <path d="M315.27,854.43h5v24.48h-5v-24.48Z"/>
    <path d="M323.64,871.7c0-.97.2-2,.61-3.08.41-1.08,1-2.07,1.77-2.97s1.71-1.66,2.8-2.26c1.1-.6,2.34-.9,3.72-.9,1.54,0,2.82.42,3.84,1.27,1.02.85,1.82,1.93,2.41,3.25.59,1.32,1,2.76,1.24,4.33.24,1.58.36,3.09.36,4.54,0,1.32-.16,2.65-.49,4-.33,1.35-.89,2.57-1.68,3.66-.79,1.09-1.87,1.98-3.23,2.67-1.36.69-3.07,1.04-5.13,1.04-.75,0-1.59-.05-2.52-.15-.93-.1-1.76-.25-2.48-.46-.09-.41-.16-.86-.22-1.34s-.1-.97-.12-1.45c-.02-.48-.04-.92-.05-1.34-.01-.42-.02-.76-.02-1.04.84.14,1.61.23,2.33.27.71.04,1.39.07,2.02.07,1.61,0,2.91-.15,3.89-.46.99-.31,1.74-.72,2.26-1.24.52-.52.87-1.12,1.04-1.8.17-.68.25-1.39.25-2.14v-.65c0-.2-.01-.41-.03-.61-.79.73-1.74,1.28-2.84,1.67-1.1.39-2.22.58-3.35.58-.84,0-1.65-.11-2.43-.32s-1.46-.55-2.04-1-1.04-1.02-1.39-1.7c-.35-.68-.53-1.48-.53-2.41ZM332.58,873.64c.5,0,1.04-.03,1.61-.1.58-.07,1.2-.18,1.85-.34-.23-1.54-.71-2.8-1.46-3.79s-1.86-1.48-3.33-1.48c-.59,0-1.1.09-1.53.27s-.79.42-1.09.71-.51.62-.65.99c-.14.36-.2.71-.2,1.05,0,.36.08.7.24,1.02s.42.6.8.85c.37.25.87.45,1.48.59.61.15,1.37.22,2.28.22Z"/>
    <path d="M349.78,870.44c0-2.77.75-4.94,2.26-6.51s3.9-2.36,7.19-2.36c.75,0,1.42,0,2.01.02.59.01,1.16.03,1.7.07s1.08.07,1.6.12,1.08.09,1.67.14v7.51c0,.79.07,1.45.2,1.97s.33.93.58,1.24c.25.31.55.52.9.65.35.12.75.19,1.21.19h.17l1.29,1.43v4.01h-1.46c-1.02,0-1.94-.08-2.77-.25-.83-.17-1.55-.45-2.18-.85-.62-.4-1.15-.92-1.56-1.58-.42-.66-.75-1.47-1-2.45-.52,1.63-1.27,2.95-2.24,3.96s-2.19,1.51-3.64,1.51c-1.97,0-3.45-.78-4.44-2.35-.99-1.56-1.48-3.72-1.48-6.46ZM353.25,855.82c.45-.57.99-1.14,1.6-1.72.61-.58,1.19-1.07,1.73-1.48.39.29.8.64,1.24,1.04s.86.81,1.24,1.24c.41-.43.83-.84,1.27-1.24.44-.4.86-.74,1.24-1.04.54.41,1.12.91,1.73,1.5.61.59,1.14,1.16,1.6,1.7-.45.54-.99,1.12-1.62,1.72s-1.2,1.09-1.72,1.48c-.39-.32-.8-.67-1.26-1.05-.45-.38-.87-.79-1.26-1.22-.41.43-.83.84-1.26,1.24-.43.4-.84.74-1.22,1.04-.52-.41-1.09-.9-1.72-1.48-.62-.58-1.16-1.15-1.62-1.72ZM354.68,870.44c0,.63.05,1.23.15,1.79.1.56.26,1.04.48,1.46.21.42.49.75.82,1,.33.25.72.37,1.17.37.61,0,1.16-.27,1.63-.8.48-.53.88-1.21,1.21-2.02.33-.82.58-1.72.77-2.7.18-.99.27-1.92.27-2.8v-.85c-.27-.04-.56-.08-.85-.1-.29-.02-.66-.03-1.09-.03-.95,0-1.72.12-2.31.37-.59.25-1.05.59-1.38,1.02-.33.43-.56.93-.68,1.5-.12.57-.19,1.17-.19,1.8Z"/>
    <path d="M368.96,873.47h.17c.97,0,1.71-.31,2.19-.93.49-.62.73-1.74.73-3.35v-3.88h5.03v4.45c0,1.52.25,2.57.76,3.16.51.59,1.22.88,2.12.88h.03c.97,0,1.71-.31,2.19-.94.49-.62.73-1.74.73-3.35v-4.11h5.03v4.62c.02,1.43.28,2.41.78,2.96.5.54,1.19.82,2.07.82h.07c.97,0,1.71-.31,2.19-.94.49-.62.73-1.74.73-3.35v-6.83h5v8.09c0,1.52-.17,2.82-.51,3.89-.34,1.08-.8,1.96-1.38,2.64-.58.68-1.26,1.17-2.06,1.48-.79.31-1.66.46-2.58.46h-.27c-1.16-.02-2.11-.4-2.87-1.12-.76-.72-1.31-1.92-1.65-3.57-.48,1.68-1.25,2.88-2.33,3.6-1.08.73-2.32,1.09-3.72,1.09h-.31c-1.18-.05-2.15-.44-2.92-1.19-.77-.75-1.32-1.98-1.63-3.71-.48,1.61-1.25,2.77-2.33,3.48-1.08.71-2.31,1.07-3.69,1.07h-.31l-1.29-1.43v-4.01Z"/>
    <path d="M409.79,873.81c1.16,0,1.99-.12,2.52-.36s.84-.58.95-1.04l-3.47-10.17,5.03-1.67,3.26,9.96c.32,1.04.7,1.79,1.16,2.24.45.45,1.14.68,2.07.68h.17l1.29,1.43v4.01h-.17c-.97,0-1.88-.04-2.72-.14s-1.6-.28-2.29-.58-1.33-.72-1.9-1.28c-.58-.55-1.09-1.31-1.55-2.26-.11.68-.3,1.3-.56,1.87-.26.57-.62,1.05-1.09,1.45-.46.4-1.04.71-1.73.93s-1.52.34-2.5.34-1.87-.11-2.82-.32c-.95-.21-1.94-.57-2.96-1.07-.2-.79-.35-1.66-.44-2.6-.09-.94-.14-1.89-.14-2.84.57.2,1.18.39,1.85.56.67.17,1.35.32,2.06.44.7.12,1.39.22,2.07.29.68.07,1.31.1,1.9.1Z"/>
    <path d="M421.35,873.47c.97,0,1.71-.31,2.19-.93.49-.62.73-1.74.73-3.35v-3.88h5.03v4.11c0,1.52.25,2.57.76,3.16.51.59,1.22.88,2.12.88h.17l1.29,1.43v4.01h-.17c-1.2,0-2.19-.36-2.97-1.07-.78-.71-1.34-1.92-1.68-3.62-.48,1.68-1.25,2.88-2.33,3.6-1.08.73-2.32,1.09-3.72,1.09h-.31l-1.29-1.43v-4.01h.17ZM423.39,859.56c.45-.57.99-1.14,1.6-1.72.61-.58,1.19-1.07,1.73-1.48.54.41,1.12.91,1.72,1.5.6.59,1.13,1.16,1.58,1.7-.45.54-.99,1.12-1.6,1.72-.61.6-1.18,1.09-1.7,1.48-.52-.41-1.09-.9-1.72-1.48-.62-.58-1.16-1.15-1.62-1.72Z"/>
    <path d="M432.06,877.48v-4.01h2.86c.14-1.25.41-2.44.82-3.59.41-1.14.92-2.24,1.55-3.28.62-1.04,1.33-2.04,2.12-2.99.79-.95,1.64-1.85,2.55-2.69.59-.18,1.18-.32,1.77-.41.59-.09,1.18-.16,1.77-.2,1.72,1.13,3.07,2.33,4.03,3.6.96,1.27,1.44,2.79,1.44,4.56,0,.91-.16,1.76-.48,2.55-.32.79-.76,1.54-1.33,2.24.41.09.89.15,1.45.17.55.02,1.2.03,1.92.03h.68l1.29,1.43v4.01h-1.73c-.43,0-.84-.02-1.24-.05s-.78-.1-1.14-.19c.23.61.34,1.26.34,1.94,0,.79-.15,1.55-.44,2.28-.29.73-.73,1.38-1.31,1.96-.58.58-1.3,1.04-2.16,1.38-.86.34-1.86.51-2.99.51-2.47,0-4.43-.67-5.87-2.02s-2.39-3.28-2.84-5.8h-1.77l-1.29-1.43ZM446.58,869.46c0-.77-.3-1.5-.9-2.18-.6-.68-1.31-1.38-2.12-2.11-1.32,1.5-2.33,2.93-3.04,4.3-.71,1.37-1.19,2.7-1.41,3.99,2.54-.09,4.42-.48,5.64-1.16,1.22-.68,1.84-1.63,1.84-2.86ZM443.66,881.29c.97,0,1.73-.21,2.28-.63.54-.42.82-1.01.82-1.79,0-.43-.07-.87-.22-1.31-.15-.44-.44-.9-.87-1.38-.95.57-1.96,1.05-3.03,1.44-1.07.4-2.13.71-3.2.94.38,1.07.96,1.79,1.73,2.16s1.6.56,2.48.56Z"/>
    <path d="M453.08,873.47c.97,0,1.71-.31,2.19-.93.49-.62.73-1.74.73-3.35v-14.76h5.03v14.99c0,1.52.25,2.57.76,3.16.51.59,1.22.88,2.12.88h.17l1.29,1.43v4.01h-.17c-1.2,0-2.19-.36-2.97-1.07-.78-.71-1.34-1.92-1.68-3.62-.48,1.68-1.25,2.88-2.33,3.6-1.08.73-2.32,1.09-3.72,1.09h-.31l-1.29-1.43v-4.01h.17Z"/>
    <path d="M463.79,873.47h.17c.97,0,1.71-.31,2.19-.93.49-.62.73-1.74.73-3.35v-14.76h5.03v16.01c0,1.52-.17,2.82-.51,3.89-.34,1.08-.8,1.96-1.38,2.63-.58.68-1.26,1.17-2.06,1.48-.79.31-1.65.46-2.58.46h-.31l-1.29-1.43v-4.01Z"/>
  </g>
</svg>
